<?xml version="1.0" encoding="UTF-8"?>
<svg id="Facebook" xmlns="http://www.w3.org/2000/svg" viewBox="0 0 841.89 595.28">
  <defs>
    <style>
      .cls-1 {
        fill: #89671f;
      }
    </style>
  </defs>
  <path class="cls-1" d="M420.94,3.16C258.31,3.16,126.47,135,126.47,297.64c0,147.75,108.81,270.07,250.67,291.23-.54-.16-1.08-.32-1.61-.49l.38-205.85h-75.19v-84.89h75.19v-75.91s-8.85-134.13,176.34-96.68v73.19l-41.7-.17s-39.83-2.72-44.43,41.02l-.17,58.55h82.21l-12.94,85.28-68.77,.17-.51,205.3s-1.71,.4-4.72,.98c143.58-19.64,254.2-142.75,254.2-291.72C715.42,135,583.58,3.16,420.94,3.16Z"/>
</svg>