<?xml version="1.0" encoding="UTF-8"?>
<svg id="Instagram" xmlns="http://www.w3.org/2000/svg" viewBox="0 0 841.89 595.28">
  <defs>
    <style>
      .cls-1 {
        fill: #89671f;
      }
    </style>
  </defs>
  <path class="cls-1" d="M567.56,0H271.19C188.99,0,121.74,67.25,121.74,149.45V445.82c0,82.2,67.25,149.45,149.45,149.45h296.37c82.2,0,149.45-67.25,149.45-149.45V149.45C717.01,67.25,649.76,0,567.56,0Zm104.69,441.34c0,58.16-47.58,105.74-105.74,105.74H276.13c-58.16,0-105.74-47.58-105.74-105.74V150.97c0-58.16,47.58-105.74,105.74-105.74h290.37c58.16,0,105.74,47.58,105.74,105.74V441.34Z"/>
  <circle class="cls-1" cx="580.85" cy="135.85" r="37.56"/>
  <path class="cls-1" d="M420.06,148.61c-81.6,0-147.76,66.15-147.76,147.76s66.15,147.76,147.76,147.76,147.76-66.15,147.76-147.76-66.15-147.76-147.76-147.76Zm-.02,247.82c-55.27,0-100.08-44.81-100.08-100.08s44.81-100.08,100.08-100.08,100.08,44.81,100.08,100.08-44.81,100.08-100.08,100.08Z"/>
</svg>